<svg width="260" height="140" viewBox="0 0 260 140" fill="none" xmlns="http://www.w3.org/2000/svg">
<path d="M13.8184 144.719C8.6425 144.719 4.45361 140.506 4.45361 135.354V14.6463C4.45361 9.47038 8.66658 5.28149 13.8184 5.28149H246.181C251.357 5.28149 255.546 9.49446 255.546 14.6463V135.354C255.546 140.53 251.333 144.719 246.181 144.719H13.8184Z" fill="#0F001B"/>
<path d="M246.181 9.7352C248.902 9.7352 251.093 11.95 251.093 14.6463V135.354C251.093 138.074 248.878 140.265 246.181 140.265H13.8185C11.0981 140.265 8.90741 138.05 8.90741 135.354V14.6463C8.90741 11.9259 11.1222 9.7352 13.8185 9.7352H246.181ZM246.181 0.827789H13.8185C6.18704 0.827789 0 7.01482 0 14.6463V135.354C0 142.985 6.18704 149.172 13.8185 149.172H246.181C253.813 149.172 260 142.985 260 135.354V14.6463C260 7.01482 253.813 0.827789 246.181 0.827789Z" fill="#272238"/>
<path d="M165.461 108.993C174.561 96.45 179.111 82.5593 179.111 67.2482V49.5778C177.041 49.0722 174.922 48.7111 172.732 48.5185V67.9944C172.732 81.2593 168.783 93.3445 160.863 104.226C155.759 111.231 149.741 116.648 142.832 120.404C144.83 122.089 146.972 123.581 149.283 124.857C155.326 120.789 160.743 115.493 165.461 108.993Z" fill="#272238"/>
<path d="M165.63 86.2426C166.159 85.6889 166.448 84.9667 166.448 84.1V75.2889C166.448 74.7352 166.713 74.4463 167.243 74.4463H169.072V70.2574H167.243C166.713 70.2574 166.448 69.9685 166.448 69.4148V60.6037C166.448 59.713 166.183 59.0148 165.63 58.4611C165.076 57.9315 164.354 57.6426 163.487 57.6426H159.659V61.1333H162.018C162.548 61.1333 162.813 61.4222 162.813 62V69.8241C162.813 70.4982 163.03 71.0278 163.439 71.4611C163.848 71.8704 164.402 72.0871 165.076 72.0871H165.244V72.6167H165.076C164.402 72.6167 163.848 72.8093 163.439 73.2426C163.03 73.6759 162.813 74.2296 162.813 74.8796V82.7037C162.813 83.2815 162.548 83.5704 162.018 83.5704H159.659V87.0611H163.487C164.378 87.0611 165.076 86.7963 165.63 86.2426Z" fill="#272238"/>
<path d="M138.474 62.2408C138.161 62.6019 137.848 62.963 137.535 63.3241C137.607 63.5167 137.704 63.7333 137.776 63.95C138.017 63.3482 138.257 62.7704 138.474 62.2408Z" fill="#272238"/>
<path d="M145.046 71.5815C142.109 79.4296 139.726 82.0778 132.648 85.3278C139.726 88.5778 142.109 91.2259 145.046 99.0741C147.983 91.2259 150.367 88.5778 157.444 85.3278C150.367 82.0778 147.983 79.4296 145.046 71.5815Z" fill="#272238"/>
<path d="M132.865 70.45C131.733 72.6648 130.77 74.9759 130.048 77.3834C132.094 75.8185 134.574 74.4222 137.776 72.9537C135.922 72.1111 134.309 71.2926 132.865 70.45Z" fill="#272238"/>
<path d="M139.509 117.274C136.765 118.574 133.852 119.585 130.819 120.356C119.528 117.515 110.211 111.039 102.869 100.928C95.526 90.8167 91.8426 79.5741 91.8426 67.2481V37.5407L130.819 22.9037L169.794 37.5407V48.35C171.817 48.3741 173.815 48.5667 175.765 48.8796V32.3407L130.819 15.513L85.9204 32.3648V66.5982C85.9204 80.8259 90.1575 93.7537 98.6315 105.406C107.106 117.057 117.843 124.52 130.843 127.794C135.874 126.519 140.569 124.617 144.926 122.089C143 120.644 141.17 119.031 139.509 117.274Z" fill="#272238"/>
<path d="M98.4631 58.413C97.9575 58.9185 97.6927 59.5685 97.6927 60.3871V68.6685C97.6927 69.1741 97.452 69.4389 96.9705 69.4389H95.2612V73.3389H96.9705C97.452 73.3389 97.6927 73.5796 97.6927 74.1093V82.2945C97.6927 83.0889 97.9575 83.763 98.4631 84.2685C98.9686 84.7741 99.6186 85.0389 100.437 85.0389H104V81.7889H101.809C101.328 81.7889 101.087 81.5 101.087 80.9704V73.7C101.087 73.0982 100.895 72.5685 100.509 72.1833C100.148 71.7741 99.6186 71.5815 98.9927 71.5815H98.8242V71.1H98.9927C99.6186 71.1 100.124 70.8833 100.509 70.4982C100.895 70.0889 101.087 69.5834 101.087 68.9815V61.7111C101.087 61.1574 101.328 60.8926 101.809 60.8926H104V57.6426H100.437C99.6427 57.6426 98.9686 57.9315 98.4631 58.413Z" fill="#272238"/>
<path d="M137.295 46.4963C135.465 51.3593 133.996 52.9963 129.591 55.0185C133.996 57.0407 135.465 58.6778 137.295 63.5407C139.124 58.6778 140.593 57.0407 144.998 55.0185C140.593 52.9963 139.124 51.3593 137.295 46.4963Z" fill="#272238"/>
<path d="M121.67 54.6333C117.963 64.5037 114.978 67.8259 106.046 71.9185C114.978 76.0111 117.987 79.3333 121.67 89.2037C124.246 82.3185 126.485 78.6352 130.626 75.6259C131.324 73.6278 132.191 71.6778 133.202 69.8241C127.328 66.4537 124.728 62.7944 121.67 54.6333Z" fill="#272238"/>
<g opacity="0.6">
<path d="M167.411 130.033C189.974 130.033 208.265 111.743 208.265 89.1796C208.265 66.6168 189.974 48.3259 167.411 48.3259C144.848 48.3259 126.557 66.6168 126.557 89.1796C126.557 111.743 144.848 130.033 167.411 130.033Z" fill="#272238"/>
</g>
<path d="M167.411 134.511C142.422 134.511 122.104 114.193 122.104 89.2037C122.104 64.2148 142.422 43.8963 167.411 43.8963C192.4 43.8963 212.719 64.2148 212.719 89.2037C212.719 114.193 192.4 134.511 167.411 134.511ZM167.411 52.8037C147.333 52.8037 131.011 69.1259 131.011 89.2037C131.011 109.281 147.333 125.604 167.411 125.604C187.489 125.604 203.811 109.281 203.811 89.2037C203.811 69.1259 187.489 52.8037 167.411 52.8037Z" fill="#272238"/>
</svg>
