<svg width="208" height="176" viewBox="0 0 208 176" fill="none" xmlns="http://www.w3.org/2000/svg">
<path d="M104 260C73.8833 252.417 49.0148 235.131 29.4185 208.169C9.79815 181.181 0 151.233 0 118.3V39L104 0" fill="#1C0330"/>
<path d="M104 0L208 39V118.3C208 151.233 198.202 181.181 178.581 208.169C158.985 235.131 134.117 252.417 104 260" fill="#272238"/>
<path d="M104 17.1407L13.7222 51.013V119.841C13.7222 148.417 22.2445 174.441 39.2648 197.841C56.2852 221.265 77.8796 236.263 104 242.835C130.144 236.263 151.715 221.265 168.735 197.841C185.756 174.417 194.278 148.417 194.278 119.841V51.013L104 17.1407Z" fill="#0F001B"/>
<path d="M180.748 122.946C180.748 124.15 181.302 124.752 182.433 124.752H186.381V133.756H182.433C181.302 133.756 180.748 134.357 180.748 135.561V154.556C180.748 156.433 180.146 157.974 178.967 159.154C177.787 160.333 176.246 160.935 174.368 160.935H166.111V153.424H171.191C172.322 153.424 172.876 152.798 172.876 151.546V134.719C172.876 133.298 173.333 132.143 174.224 131.204C175.115 130.289 176.294 129.832 177.763 129.832H178.148V128.7H177.763C176.294 128.7 175.115 128.243 174.224 127.328C173.333 126.413 172.876 125.233 172.876 123.813V106.985C172.876 105.733 172.322 105.107 171.191 105.107H166.111V97.5963H174.368C176.246 97.5963 177.787 98.1982 178.967 99.3778C180.146 100.557 180.748 102.098 180.748 103.976V122.946Z" fill="black"/>
<path d="M180.748 122.946C180.748 124.15 181.302 124.752 182.433 124.752H186.381V133.756H182.433C181.302 133.756 180.748 134.357 180.748 135.561V154.556C180.748 156.433 180.146 157.974 178.967 159.154C177.787 160.333 176.246 160.935 174.368 160.935H166.111V153.424H171.191C172.322 153.424 172.876 152.798 172.876 151.546V134.719C172.876 133.298 173.333 132.143 174.224 131.204C175.115 130.289 176.294 129.832 177.763 129.832H178.148V128.7H177.763C176.294 128.7 175.115 128.243 174.224 127.328C173.333 126.413 172.876 125.233 172.876 123.813V106.985C172.876 105.733 172.322 105.107 171.191 105.107H166.111V97.5963H174.368C176.246 97.5963 177.787 98.1982 178.967 99.3778C180.146 100.557 180.748 102.098 180.748 103.976V122.946Z" fill="#272238"/>
<path d="M27.3 104C27.3 102.122 27.9019 100.582 29.0815 99.4019C30.2611 98.2222 31.8019 97.6204 33.6796 97.6204H41.9371V105.132H36.8574C35.7259 105.132 35.1722 105.757 35.1722 107.009V123.837C35.1722 125.257 34.7148 126.413 33.8241 127.352C32.9334 128.267 31.7537 128.724 30.2852 128.724H29.9V129.856H30.2852C31.7537 129.856 32.9334 130.313 33.8241 131.228C34.7148 132.143 35.1722 133.322 35.1722 134.743V151.57C35.1722 152.822 35.7259 153.448 36.8574 153.448H41.9371V160.959H33.6796C31.8019 160.959 30.2611 160.357 29.0815 159.178C27.9019 157.998 27.3 156.457 27.3 154.58V135.609C27.3 134.406 26.7463 133.804 25.6148 133.804H21.6667V124.8H25.6148C26.7463 124.8 27.3 124.198 27.3 122.994V104Z" fill="black"/>
<path d="M27.3 104C27.3 102.122 27.9019 100.582 29.0815 99.4019C30.2611 98.2222 31.8019 97.6204 33.6796 97.6204H41.9371V105.132H36.8574C35.7259 105.132 35.1722 105.757 35.1722 107.009V123.837C35.1722 125.257 34.7148 126.413 33.8241 127.352C32.9334 128.267 31.7537 128.724 30.2852 128.724H29.9V129.856H30.2852C31.7537 129.856 32.9334 130.313 33.8241 131.228C34.7148 132.143 35.1722 133.322 35.1722 134.743V151.57C35.1722 152.822 35.7259 153.448 36.8574 153.448H41.9371V160.959H33.6796C31.8019 160.959 30.2611 160.357 29.0815 159.178C27.9019 157.998 27.3 156.457 27.3 154.58V135.609C27.3 134.406 26.7463 133.804 25.6148 133.804H21.6667V124.8H25.6148C26.7463 124.8 27.3 124.198 27.3 122.994V104Z" fill="#272238"/>
<path d="M136.813 91.4815C126.63 96.1518 123.211 99.9315 118.998 111.222C114.785 99.9555 111.367 96.1518 101.183 91.4815C111.367 86.8111 114.785 83.0315 118.998 71.7407C123.211 83.0074 126.63 86.8111 136.813 91.4815Z" fill="#272238"/>
<path d="M161.344 157.228C146.081 164.233 140.954 169.915 134.646 186.815C128.315 169.915 123.211 164.233 107.948 157.228C123.211 150.222 128.339 144.541 134.646 127.641C140.954 144.565 146.081 150.246 161.344 157.228Z" fill="#272238"/>
<path d="M118.974 130.602C98.3185 140.087 91.3851 147.767 82.8148 170.637C74.2685 147.767 67.3111 140.063 46.6555 130.602C67.3111 121.117 74.2444 113.437 82.8148 90.5667C91.3611 113.437 98.2944 121.117 118.974 130.602Z" fill="#272238"/>
</svg>
