<svg width="16" height="16" viewBox="0 0 16 16" fill="none" xmlns="http://www.w3.org/2000/svg">
<mask id="mask0_122_395" style="mask-type:alpha" maskUnits="userSpaceOnUse" x="0" y="0" width="16" height="16">
<rect width="16" height="16" fill="#D9D9D9"/>
</mask>
<g mask="url(#mask0_122_395)">
<path d="M4.00016 9.33334H9.3335V8.00001H4.00016V9.33334ZM4.00016 7.33334H12.0002V6.00001H4.00016V7.33334ZM4.00016 5.33334H12.0002V4.00001H4.00016V5.33334ZM1.3335 14.6667V2.66668C1.3335 2.30001 1.46405 1.98612 1.72516 1.72501C1.98627 1.4639 2.30016 1.33334 2.66683 1.33334H13.3335C13.7002 1.33334 14.0141 1.4639 14.2752 1.72501C14.5363 1.98612 14.6668 2.30001 14.6668 2.66668V10.6667C14.6668 11.0333 14.5363 11.3472 14.2752 11.6083C14.0141 11.8695 13.7002 12 13.3335 12H4.00016L1.3335 14.6667ZM3.4335 10.6667H13.3335V2.66668H2.66683V11.4167L3.4335 10.6667Z" fill="#EFF5FF"/>
</g>
</svg>
