<svg width="20" height="20" viewBox="0 0 20 20" fill="none" xmlns="http://www.w3.org/2000/svg">
<mask id="mask0_273_840" style="mask-type:alpha" maskUnits="userSpaceOnUse" x="0" y="0" width="20" height="20">
<rect width="20" height="20" fill="#D9D9D9"/>
</mask>
<g mask="url(#mask0_273_840)">
<path d="M14.1667 13.3333C13.4722 13.3333 12.8819 13.0903 12.3958 12.6042C11.9097 12.1181 11.6667 11.5278 11.6667 10.8333C11.6667 10.1389 11.9097 9.54861 12.3958 9.0625C12.8819 8.57639 13.4722 8.33333 14.1667 8.33333C14.8611 8.33333 15.4514 8.57639 15.9375 9.0625C16.4236 9.54861 16.6667 10.1389 16.6667 10.8333C16.6667 11.5278 16.4236 12.1181 15.9375 12.6042C15.4514 13.0903 14.8611 13.3333 14.1667 13.3333ZM14.1667 11.6667C14.4028 11.6667 14.6007 11.5868 14.7604 11.4271C14.9201 11.2674 15 11.0694 15 10.8333C15 10.5972 14.9201 10.3993 14.7604 10.2396C14.6007 10.0799 14.4028 10 14.1667 10C13.9306 10 13.7326 10.0799 13.5729 10.2396C13.4132 10.3993 13.3333 10.5972 13.3333 10.8333C13.3333 11.0694 13.4132 11.2674 13.5729 11.4271C13.7326 11.5868 13.9306 11.6667 14.1667 11.6667ZM9.16667 19.1667V16.75C9.16667 16.4583 9.23611 16.184 9.375 15.9271C9.51389 15.6701 9.70833 15.4653 9.95833 15.3125C10.4028 15.0486 10.8715 14.8299 11.3646 14.6562C11.8576 14.4826 12.3611 14.3542 12.875 14.2708L14.1667 15.8333L15.4583 14.2708C15.9722 14.3542 16.4722 14.4826 16.9583 14.6562C17.4444 14.8299 17.9097 15.0486 18.3542 15.3125C18.6042 15.4653 18.8021 15.6701 18.9479 15.9271C19.0938 16.184 19.1667 16.4583 19.1667 16.75V19.1667H9.16667ZM10.8125 17.5H13.375L12.25 16.125C12 16.1944 11.7569 16.2847 11.5208 16.3958C11.2847 16.5069 11.0486 16.625 10.8125 16.75V17.5ZM14.9583 17.5H17.5V16.75C17.2778 16.6111 17.0486 16.4896 16.8125 16.3854C16.5764 16.2812 16.3333 16.1944 16.0833 16.125L14.9583 17.5ZM4.16667 17.5C3.70833 17.5 3.31597 17.3368 2.98958 17.0104C2.66319 16.684 2.5 16.2917 2.5 15.8333V4.16667C2.5 3.70833 2.66319 3.31597 2.98958 2.98958C3.31597 2.66319 3.70833 2.5 4.16667 2.5H15.8333C16.2917 2.5 16.684 2.66319 17.0104 2.98958C17.3368 3.31597 17.5 3.70833 17.5 4.16667V8.33333C17.2778 8.05556 17.0347 7.79167 16.7708 7.54167C16.5069 7.29167 16.1944 7.125 15.8333 7.04167V4.16667H4.16667V15.8333H7.625C7.58333 15.9861 7.55208 16.1389 7.53125 16.2917C7.51042 16.4444 7.5 16.5972 7.5 16.75V17.5H4.16667ZM5.83333 7.5H11.6667C12.0278 7.22222 12.4236 7.01389 12.8542 6.875C13.2847 6.73611 13.7222 6.66667 14.1667 6.66667V5.83333H5.83333V7.5ZM5.83333 10.8333H10C10 10.5417 10.0312 10.2569 10.0938 9.97917C10.1562 9.70139 10.2431 9.43056 10.3542 9.16667H5.83333V10.8333ZM5.83333 14.1667H8.70833C8.86111 14.0417 9.02431 13.9306 9.19792 13.8333C9.37153 13.7361 9.54861 13.6458 9.72917 13.5625V12.5H5.83333V14.1667ZM4.16667 15.8333V4.16667V7.02083V6.66667V15.8333Z" fill="#EFF5FF"/>
</g>
</svg>
