<svg width="220" height="216" viewBox="0 0 220 216" fill="none" xmlns="http://www.w3.org/2000/svg">
<path d="M105.274 214.822C91.1777 214.822 77.5092 212.072 64.6555 206.613C52.2296 201.358 41.0666 193.841 31.4926 184.246C21.8981 174.652 14.3814 163.509 9.12589 151.083C3.66663 138.209 0.916626 124.541 0.916626 110.445C0.916626 96.3483 3.66663 82.6797 9.12589 69.826C14.3814 57.4001 21.8981 46.2372 31.4926 36.6631C41.087 27.0686 52.2296 19.552 64.6555 14.2964C77.5296 8.85753 91.1981 6.08716 105.274 6.08716C119.35 6.08716 133.039 8.85753 145.893 14.2964C158.318 19.552 169.481 27.0686 179.056 36.6631C188.65 46.2575 196.167 57.4001 201.422 69.826C206.861 82.7001 209.631 96.3686 209.631 110.445C209.631 124.541 206.881 138.209 201.422 151.063C196.167 163.489 188.65 174.652 179.056 184.226C169.461 193.82 158.318 201.337 145.893 206.593C133.039 212.052 119.37 214.822 105.274 214.822Z" fill="#1C0330"/>
<path d="M105.274 6.39261C119.33 6.39261 132.957 9.14261 145.77 14.5611C158.156 19.7963 169.298 27.313 178.852 36.8667C188.406 46.4204 195.902 57.5426 201.157 69.9482C206.576 82.7815 209.326 96.4093 209.326 110.444C209.326 124.48 206.576 138.128 201.157 150.941C195.922 163.326 188.406 174.469 178.852 184.022C169.298 193.576 158.176 201.072 145.77 206.328C132.937 211.746 119.309 214.496 105.274 214.496C91.2389 214.496 77.6111 211.767 64.7778 206.328C52.3926 201.093 41.25 193.576 31.6963 184.022C22.1426 174.469 14.6463 163.346 9.39071 150.941C3.97219 138.128 1.2222 124.5 1.2222 110.444C1.2222 96.3889 3.97219 82.7611 9.39071 69.9482C14.6259 57.563 22.1426 46.4204 31.6963 36.8667C41.25 27.313 52.3722 19.8167 64.7778 14.5611C77.6111 9.14261 91.2389 6.39261 105.274 6.39261ZM105.274 5.78149C47.4629 5.78149 0.611084 52.6537 0.611084 110.444C0.611084 168.235 47.4629 215.107 105.274 215.107C163.085 215.107 209.937 168.256 209.937 110.444C209.937 52.6333 163.085 5.78149 105.274 5.78149Z" fill="#0F001B"/>
<mask id="mask0_118_913" style="mask-type:luminance" maskUnits="userSpaceOnUse" x="0" y="5" width="210" height="211">
<path d="M105.274 215.107C163.078 215.107 209.937 168.248 209.937 110.444C209.937 52.6407 163.078 5.78149 105.274 5.78149C47.4703 5.78149 0.611084 52.6407 0.611084 110.444C0.611084 168.248 47.4703 215.107 105.274 215.107Z" fill="white"/>
</mask>
<g mask="url(#mask0_118_913)">
<path d="M226.335 -68.0203L-34.1204 66.5668" stroke="#0F001B" stroke-width="3" stroke-miterlimit="10"/>
<path d="M226.335 -59.811L-34.1204 74.7556" stroke="#0F001B" stroke-width="3" stroke-miterlimit="10"/>
<path d="M226.335 -51.6221L-34.1204 82.965" stroke="#0F001B" stroke-width="3" stroke-miterlimit="10"/>
<path d="M226.335 -43.4128L-34.1204 91.1538" stroke="#0F001B" stroke-width="3" stroke-miterlimit="10"/>
<path d="M226.335 -35.2239L-34.1204 99.3632" stroke="#0F001B" stroke-width="3" stroke-miterlimit="10"/>
<path d="M226.335 -27.0146L-34.1204 107.552" stroke="#0F001B" stroke-width="3" stroke-miterlimit="10"/>
<path d="M226.335 -18.8054L-34.1204 115.761" stroke="#0F001B" stroke-width="3" stroke-miterlimit="10"/>
<path d="M226.335 -10.6165L-34.1204 123.95" stroke="#0F001B" stroke-width="3" stroke-miterlimit="10"/>
<path d="M226.335 -2.40723L-34.1204 132.159" stroke="#0F001B" stroke-width="3" stroke-miterlimit="10"/>
<path d="M226.335 5.78149L-34.1204 140.348" stroke="#0F001B" stroke-width="3" stroke-miterlimit="10"/>
<path d="M226.335 13.991L-34.1204 148.558" stroke="#0F001B" stroke-width="3" stroke-miterlimit="10"/>
<path d="M226.335 22.1797L-34.1204 156.746" stroke="#0F001B" stroke-width="3" stroke-miterlimit="10"/>
<path d="M226.335 30.3889L-34.1204 164.956" stroke="#0F001B" stroke-width="3" stroke-miterlimit="10"/>
<path d="M226.335 38.5779L-34.1204 173.165" stroke="#0F001B" stroke-width="3" stroke-miterlimit="10"/>
<path d="M226.335 46.7871L-34.1204 181.354" stroke="#0F001B" stroke-width="3" stroke-miterlimit="10"/>
<path d="M226.335 54.9761L-34.1204 189.563" stroke="#0F001B" stroke-width="3" stroke-miterlimit="10"/>
<path d="M226.335 63.1853L-34.1204 197.752" stroke="#0F001B" stroke-width="3" stroke-miterlimit="10"/>
<path d="M226.335 71.3743L-34.1204 205.961" stroke="#0F001B" stroke-width="3" stroke-miterlimit="10"/>
<path d="M226.335 79.5835L-34.1204 214.15" stroke="#0F001B" stroke-width="3" stroke-miterlimit="10"/>
<path d="M226.335 87.7725L-34.1204 222.359" stroke="#0F001B" stroke-width="3" stroke-miterlimit="10"/>
<path d="M226.335 95.9817L-34.1204 230.548" stroke="#0F001B" stroke-width="3" stroke-miterlimit="10"/>
<path d="M226.335 104.191L-34.1204 238.758" stroke="#0F001B" stroke-width="3" stroke-miterlimit="10"/>
<path d="M226.335 112.38L-34.1204 246.946" stroke="#0F001B" stroke-width="3" stroke-miterlimit="10"/>
<path d="M226.335 120.589L-34.1204 255.156" stroke="#0F001B" stroke-width="3" stroke-miterlimit="10"/>
<path d="M226.335 128.778L-34.1204 263.345" stroke="#0F001B" stroke-width="3" stroke-miterlimit="10"/>
<path d="M226.335 136.987L-34.1204 271.554" stroke="#0F001B" stroke-width="3" stroke-miterlimit="10"/>
<path d="M226.335 145.176L-34.1204 279.743" stroke="#0F001B" stroke-width="3" stroke-miterlimit="10"/>
<path d="M226.335 153.385L-34.1204 287.952" stroke="#0F001B" stroke-width="3" stroke-miterlimit="10"/>
<path d="M226.335 161.574L-34.1204 296.161" stroke="#0F001B" stroke-width="3" stroke-miterlimit="10"/>
</g>
<path d="M114.93 209.18C100.956 209.18 87.3889 206.45 74.6167 201.052C62.2926 195.837 51.2111 188.361 41.6981 178.868C32.1852 169.355 24.7296 158.294 19.5148 145.95C14.1167 133.178 11.387 119.611 11.387 105.637C11.387 91.6629 14.1167 78.0962 19.5148 65.324C24.7296 52.9999 32.2055 41.9184 41.6981 32.4055C51.2111 22.8925 62.2722 15.4369 74.6167 10.2221C87.3889 4.82397 100.956 2.07397 114.93 2.07397C128.904 2.07397 142.47 4.82397 155.222 10.2221C167.546 15.4369 178.628 22.9129 188.141 32.4055C197.654 41.9184 205.109 52.9795 210.324 65.324C215.722 78.0962 218.452 91.6425 218.452 105.637C218.452 119.631 215.722 133.178 210.324 145.95C205.109 158.274 197.633 169.355 188.141 178.868C178.628 188.381 167.567 195.837 155.222 201.052C142.47 206.43 128.904 209.18 114.93 209.18Z" fill="#272238"/>
<path d="M114.93 3.19435C128.761 3.19435 142.165 5.90361 154.794 11.2407C166.996 16.3944 177.935 23.7888 187.346 33.1999C196.757 42.611 204.131 53.5703 209.306 65.7518C214.643 78.3814 217.352 91.7851 217.352 105.617C217.352 119.448 214.643 132.852 209.306 145.481C204.152 157.683 196.757 168.622 187.346 178.033C177.935 187.444 166.976 194.818 154.794 199.993C142.165 205.33 128.761 208.039 114.93 208.039C101.098 208.039 87.6944 205.33 75.0648 199.993C62.863 194.839 51.9241 187.444 42.513 178.033C33.1018 168.622 25.7278 157.663 20.5537 145.481C15.2167 132.852 12.5074 119.448 12.5074 105.617C12.5074 91.7851 15.2167 78.3814 20.5537 65.7518C25.7074 53.5499 33.1018 42.611 42.513 33.1999C51.9241 23.7888 62.8833 16.4147 75.0648 11.2407C87.6741 5.90361 101.098 3.19435 114.93 3.19435ZM114.93 0.953613C57.1185 0.953613 10.2667 47.8055 10.2667 105.617C10.2667 163.428 57.1185 210.28 114.93 210.28C172.741 210.28 219.593 163.428 219.593 105.617C219.593 47.8055 172.741 0.953613 114.93 0.953613Z" fill="#0F001B"/>
<path d="M114.93 189.054C103.665 189.054 92.7463 186.854 82.4592 182.494C72.5185 178.298 63.5963 172.268 55.937 164.609C48.2777 156.95 42.2685 148.028 38.0518 138.087C33.6926 127.8 31.4926 116.881 31.4926 105.616C31.4926 94.3517 33.6926 83.4331 38.0518 73.1461C42.2481 63.2054 48.2777 54.2831 55.937 46.6239C63.5963 38.9646 72.5185 32.9554 82.4592 28.7387C92.7463 24.3794 103.665 22.1794 114.93 22.1794C126.194 22.1794 137.113 24.3794 147.4 28.7387C157.341 32.935 166.263 38.9646 173.922 46.6239C181.581 54.2831 187.591 63.2054 191.807 73.1461C196.167 83.4331 198.367 94.3517 198.367 105.616C198.367 116.881 196.167 127.8 191.807 138.087C187.611 148.028 181.581 156.95 173.922 164.609C166.263 172.268 157.341 178.278 147.4 182.494C137.113 186.833 126.194 189.054 114.93 189.054Z" fill="#1C0330"/>
<path d="M114.93 22.7295C126.113 22.7295 136.97 24.9295 147.196 29.248C157.076 33.4239 165.937 39.3924 173.556 47.0109C181.174 54.6295 187.143 63.4906 191.318 73.3702C195.637 83.5961 197.837 94.4535 197.837 105.637C197.837 116.82 195.637 127.678 191.318 137.904C187.143 147.783 181.174 156.644 173.556 164.263C165.937 171.881 157.076 177.85 147.196 182.026C136.97 186.344 126.113 188.544 114.93 188.544C103.746 188.544 92.8888 186.344 82.6629 182.026C72.7833 177.85 63.9222 171.881 56.3037 164.263C48.6851 156.644 42.7166 147.783 38.5407 137.904C34.2222 127.678 32.0222 116.82 32.0222 105.637C32.0222 94.4535 34.2222 83.5961 38.5407 73.3702C42.7166 63.4906 48.6851 54.6295 56.3037 47.0109C63.9222 39.3924 72.7833 33.4239 82.6629 29.248C92.8685 24.9091 103.726 22.7295 114.93 22.7295ZM114.93 21.7109C68.587 21.7109 31.0037 59.2943 31.0037 105.637C31.0037 151.979 68.587 189.563 114.93 189.563C161.272 189.563 198.856 151.979 198.856 105.637C198.856 59.2943 161.272 21.7109 114.93 21.7109Z" fill="#0F001B"/>
<path d="M115.154 38.8628L59.8074 59.6202V101.828C59.8074 119.346 65.0222 135.296 75.4722 149.657C85.9018 163.998 99.1426 173.205 115.174 177.239C131.206 173.205 144.446 163.998 154.876 149.657C165.285 135.296 170.5 119.346 170.5 101.828V59.6202L115.154 38.8628ZM163.187 102.642C163.187 117.859 158.644 131.691 149.6 144.157C140.535 156.624 129.067 164.609 115.154 168.092C101.261 164.589 89.7518 156.604 80.7074 144.137C71.6426 131.691 67.1203 117.839 67.1203 102.622V66.0165L115.174 47.9887L163.228 66.0165V102.642H163.187Z" fill="#272238"/>
<path d="M155.996 104.293C155.996 104.924 156.281 105.25 156.893 105.25H158.991V110.037H156.893C156.281 110.037 155.996 110.363 155.996 110.994V121.098C155.996 122.096 155.67 122.911 155.039 123.543C154.407 124.174 153.593 124.5 152.594 124.5H148.194V120.507H150.904C151.515 120.507 151.8 120.181 151.8 119.509V110.546C151.8 109.793 152.044 109.181 152.513 108.672C152.981 108.183 153.613 107.939 154.387 107.939H154.591V107.328H154.387C153.613 107.328 152.981 107.083 152.513 106.594C152.044 106.105 151.8 105.474 151.8 104.72V95.7573C151.8 95.0851 151.515 94.7592 150.904 94.7592H148.194V90.7666H152.594C153.593 90.7666 154.407 91.0925 155.039 91.724C155.67 92.3555 155.996 93.1703 155.996 94.1685V104.293Z" fill="#272238"/>
<path d="M155.996 104.293C155.996 104.924 156.281 105.25 156.893 105.25H158.991V110.037H156.893C156.281 110.037 155.996 110.363 155.996 110.994V121.098C155.996 122.096 155.67 122.911 155.039 123.543C154.407 124.174 153.593 124.5 152.594 124.5H148.194V120.507H150.904C151.515 120.507 151.8 120.181 151.8 119.509V110.546C151.8 109.793 152.044 109.181 152.513 108.672C152.981 108.183 153.613 107.939 154.387 107.939H154.591V107.328H154.387C153.613 107.328 152.981 107.083 152.513 106.594C152.044 106.105 151.8 105.474 151.8 104.72V95.7573C151.8 95.0851 151.515 94.7592 150.904 94.7592H148.194V90.7666H152.594C153.593 90.7666 154.407 91.0925 155.039 91.724C155.67 92.3555 155.996 93.1703 155.996 94.1685V104.293Z" fill="#272238"/>
<path d="M74.3315 94.209C74.3315 93.2108 74.6574 92.396 75.2889 91.7645C75.9204 91.1331 76.7352 90.8071 77.7333 90.8071H82.1333V94.7997H79.4241C78.813 94.7997 78.5278 95.1256 78.5278 95.7979V104.761C78.5278 105.515 78.2833 106.126 77.8148 106.635C77.3463 107.124 76.7148 107.368 75.9407 107.368H75.737V107.979H75.9407C76.7148 107.979 77.3463 108.224 77.8148 108.713C78.2833 109.202 78.5278 109.833 78.5278 110.587V119.55C78.5278 120.222 78.813 120.548 79.4241 120.548H82.1333V124.54H77.7333C76.7352 124.54 75.9204 124.215 75.2889 123.583C74.6574 122.952 74.3315 122.137 74.3315 121.139V111.035C74.3315 110.403 74.0463 110.077 73.4352 110.077H71.337V105.29H73.4352C74.0463 105.29 74.3315 104.965 74.3315 104.333V94.209Z" fill="#272238"/>
<path d="M74.3315 94.209C74.3315 93.2108 74.6574 92.396 75.2889 91.7645C75.9204 91.1331 76.7352 90.8071 77.7333 90.8071H82.1333V94.7997H79.4241C78.813 94.7997 78.5278 95.1256 78.5278 95.7979V104.761C78.5278 105.515 78.2833 106.126 77.8148 106.635C77.3463 107.124 76.7148 107.368 75.9407 107.368H75.737V107.979H75.9407C76.7148 107.979 77.3463 108.224 77.8148 108.713C78.2833 109.202 78.5278 109.833 78.5278 110.587V119.55C78.5278 120.222 78.813 120.548 79.4241 120.548H82.1333V124.54H77.7333C76.7352 124.54 75.9204 124.215 75.2889 123.583C74.6574 122.952 74.3315 122.137 74.3315 121.139V111.035C74.3315 110.403 74.0463 110.077 73.4352 110.077H71.337V105.29H73.4352C74.0463 105.29 74.3315 104.965 74.3315 104.333V94.209Z" fill="#272238"/>
<path d="M132.611 87.548C127.193 90.0332 125.38 92.0498 123.139 98.0591C120.898 92.0702 119.085 90.0332 113.667 87.548C119.085 85.0628 120.898 83.0461 123.139 77.0369C125.38 83.0461 127.193 85.0628 132.611 87.548Z" fill="#272238"/>
<path d="M145.668 122.544C137.541 126.272 134.811 129.287 131.45 138.29C128.089 129.287 125.359 126.272 117.231 122.544C125.359 118.816 128.089 115.802 131.45 106.798C134.811 115.802 137.541 118.816 145.668 122.544Z" fill="#272238"/>
<path d="M123.119 108.366C112.119 113.418 108.431 117.492 103.869 129.674C99.3259 117.492 95.6185 113.398 84.6185 108.366C95.6185 103.315 99.3056 99.2406 103.869 87.0591C108.431 99.2406 112.119 103.315 123.119 108.366Z" fill="#272238"/>
<g opacity="0.3">
<mask id="mask1_118_913" style="mask-type:luminance" maskUnits="userSpaceOnUse" x="10" y="0" width="210" height="211">
<path d="M114.93 210.3C172.733 210.3 219.593 163.441 219.593 105.637C219.593 47.8331 172.733 0.973877 114.93 0.973877C57.1259 0.973877 10.2667 47.8331 10.2667 105.637C10.2667 163.441 57.1259 210.3 114.93 210.3Z" fill="white"/>
</mask>
<g mask="url(#mask1_118_913)">
<path d="M163.608 -55.9282L-54.491 178.6L-31.5185 199.964L186.581 -34.565L163.608 -55.9282Z" fill="#E4C7FF"/>
</g>
<mask id="mask2_118_913" style="mask-type:luminance" maskUnits="userSpaceOnUse" x="10" y="0" width="210" height="211">
<path d="M114.93 210.3C172.733 210.3 219.593 163.441 219.593 105.637C219.593 47.8331 172.733 0.973877 114.93 0.973877C57.1259 0.973877 10.2667 47.8331 10.2667 105.637C10.2667 163.441 57.1259 210.3 114.93 210.3Z" fill="white"/>
</mask>
<g mask="url(#mask2_118_913)">
<path d="M192.578 -28.9721L-25.5206 205.556L-16.7642 213.699L201.335 -20.8292L192.578 -28.9721Z" fill="#E4C7FF"/>
</g>
</g>
</svg>
