<svg width="16" height="16" viewBox="0 0 16 16" fill="none" xmlns="http://www.w3.org/2000/svg">
<mask id="mask0_311_388" style="mask-type:alpha" maskUnits="userSpaceOnUse" x="0" y="0" width="16" height="16">
<rect width="16" height="16" fill="#D9D9D9"/>
</mask>
<g mask="url(#mask0_311_388)">
<path d="M12.6666 14C12.2333 14 11.8444 13.875 11.4999 13.625C11.1555 13.375 10.9166 13.0556 10.7833 12.6667H7.33325C6.59992 12.6667 5.97214 12.4056 5.44992 11.8833C4.9277 11.3611 4.66658 10.7333 4.66658 10C4.66658 9.26667 4.9277 8.63889 5.44992 8.11667C5.97214 7.59444 6.59992 7.33333 7.33325 7.33333H8.66658C9.03325 7.33333 9.34714 7.20278 9.60825 6.94167C9.86936 6.68056 9.99992 6.36667 9.99992 6C9.99992 5.63333 9.86936 5.31944 9.60825 5.05833C9.34714 4.79722 9.03325 4.66667 8.66658 4.66667H5.21659C5.07214 5.05556 4.83047 5.375 4.49159 5.625C4.1527 5.875 3.76659 6 3.33325 6C2.7777 6 2.30547 5.80556 1.91659 5.41667C1.5277 5.02778 1.33325 4.55556 1.33325 4C1.33325 3.44444 1.5277 2.97222 1.91659 2.58333C2.30547 2.19444 2.7777 2 3.33325 2C3.76659 2 4.1527 2.125 4.49159 2.375C4.83047 2.625 5.07214 2.94444 5.21659 3.33333H8.66658C9.39992 3.33333 10.0277 3.59444 10.5499 4.11667C11.0721 4.63889 11.3333 5.26667 11.3333 6C11.3333 6.73333 11.0721 7.36111 10.5499 7.88333C10.0277 8.40556 9.39992 8.66667 8.66658 8.66667H7.33325C6.96659 8.66667 6.6527 8.79722 6.39158 9.05833C6.13047 9.31945 5.99992 9.63333 5.99992 10C5.99992 10.3667 6.13047 10.6806 6.39158 10.9417C6.6527 11.2028 6.96659 11.3333 7.33325 11.3333H10.7833C10.9277 10.9444 11.1694 10.625 11.5083 10.375C11.8471 10.125 12.2333 10 12.6666 10C13.2221 10 13.6944 10.1944 14.0833 10.5833C14.4721 10.9722 14.6666 11.4444 14.6666 12C14.6666 12.5556 14.4721 13.0278 14.0833 13.4167C13.6944 13.8056 13.2221 14 12.6666 14ZM3.33325 4.66667C3.52214 4.66667 3.68047 4.60278 3.80825 4.475C3.93603 4.34722 3.99992 4.18889 3.99992 4C3.99992 3.81111 3.93603 3.65278 3.80825 3.525C3.68047 3.39722 3.52214 3.33333 3.33325 3.33333C3.14436 3.33333 2.98603 3.39722 2.85825 3.525C2.73047 3.65278 2.66659 3.81111 2.66659 4C2.66659 4.18889 2.73047 4.34722 2.85825 4.475C2.98603 4.60278 3.14436 4.66667 3.33325 4.66667Z" fill="#EFF5FF"/>
</g>
</svg>
