<svg width="40" height="41" viewBox="0 0 40 41" fill="none" xmlns="http://www.w3.org/2000/svg">
<mask id="mask0_241_5994" style="mask-type:alpha" maskUnits="userSpaceOnUse" x="0" y="0" width="40" height="41">
<rect y="0.5" width="40" height="40" fill="#D9D9D9"/>
</mask>
<g mask="url(#mask0_241_5994)">
<path d="M18.3333 32.875V21.4583L8.33333 15.6666V27.0833L18.3333 32.875ZM21.6667 32.875L31.6667 27.0833V15.6666L21.6667 21.4583V32.875ZM20 18.5833L29.875 12.875L20 7.16665L10.125 12.875L20 18.5833ZM6.66667 30C6.13889 29.6944 5.72917 29.2916 5.4375 28.7916C5.14583 28.2916 5 27.7361 5 27.125V13.875C5 13.2639 5.14583 12.7083 5.4375 12.2083C5.72917 11.7083 6.13889 11.3055 6.66667 11L18.3333 4.29165C18.8611 3.98609 19.4167 3.83331 20 3.83331C20.5833 3.83331 21.1389 3.98609 21.6667 4.29165L33.3333 11C33.8611 11.3055 34.2708 11.7083 34.5625 12.2083C34.8542 12.7083 35 13.2639 35 13.875V27.125C35 27.7361 34.8542 28.2916 34.5625 28.7916C34.2708 29.2916 33.8611 29.6944 33.3333 30L21.6667 36.7083C21.1389 37.0139 20.5833 37.1666 20 37.1666C19.4167 37.1666 18.8611 37.0139 18.3333 36.7083L6.66667 30Z" fill="#EFF5FF"/>
</g>
</svg>
