<svg width="24" height="25" viewBox="0 0 24 25" fill="none" xmlns="http://www.w3.org/2000/svg">
<mask id="mask0_177_1546" style="mask-type:alpha" maskUnits="userSpaceOnUse" x="0" y="0" width="24" height="25">
<rect y="0.5" width="24" height="24" fill="#D9D9D9"/>
</mask>
<g mask="url(#mask0_177_1546)">
<path d="M17 21.525C16.8667 21.525 16.7333 21.5083 16.6 21.475C16.4667 21.4417 16.3417 21.3833 16.225 21.3L13.225 19.55C12.9917 19.4167 12.8125 19.2375 12.6875 19.0125C12.5625 18.7875 12.5 18.5417 12.5 18.275V14.75C12.5 14.4833 12.5625 14.2375 12.6875 14.0125C12.8125 13.7875 12.9917 13.6083 13.225 13.475L16.225 11.725C16.3417 11.6417 16.4667 11.5833 16.6 11.55C16.7333 11.5167 16.8667 11.5 17 11.5C17.1333 11.5 17.2625 11.5208 17.3875 11.5625C17.5125 11.6042 17.6333 11.6583 17.75 11.725L20.75 13.475C20.9833 13.6083 21.1667 13.7875 21.3 14.0125C21.4333 14.2375 21.5 14.4833 21.5 14.75V18.275C21.5 18.5417 21.4333 18.7875 21.3 19.0125C21.1667 19.2375 20.9833 19.4167 20.75 19.55L17.75 21.3C17.6333 21.3667 17.5125 21.4208 17.3875 21.4625C17.2625 21.5042 17.1333 21.525 17 21.525ZM10 12.5C8.9 12.5 7.95833 12.1083 7.175 11.325C6.39167 10.5417 6 9.6 6 8.5C6 7.4 6.39167 6.45833 7.175 5.675C7.95833 4.89167 8.9 4.5 10 4.5C11.1 4.5 12.0417 4.89167 12.825 5.675C13.6083 6.45833 14 7.4 14 8.5C14 9.6 13.6083 10.5417 12.825 11.325C12.0417 12.1083 11.1 12.5 10 12.5ZM2 20.5V17.7C2 17.15 2.14167 16.6333 2.425 16.15C2.70833 15.6667 3.1 15.3 3.6 15.05C4.45 14.6167 5.40833 14.25 6.475 13.95C7.54167 13.65 8.71667 13.5 10 13.5H10.35C10.45 13.5 10.55 13.5167 10.65 13.55C10.5167 13.85 10.4042 14.1625 10.3125 14.4875C10.2208 14.8125 10.15 15.15 10.1 15.5H10C8.81667 15.5 7.75417 15.65 6.8125 15.95C5.87083 16.25 5.1 16.55 4.5 16.85C4.35 16.9333 4.22917 17.05 4.1375 17.2C4.04583 17.35 4 17.5167 4 17.7V18.5H10.3C10.4 18.85 10.5333 19.1958 10.7 19.5375C10.8667 19.8792 11.05 20.2 11.25 20.5H2ZM10 10.5C10.55 10.5 11.0208 10.3042 11.4125 9.9125C11.8042 9.52083 12 9.05 12 8.5C12 7.95 11.8042 7.47917 11.4125 7.0875C11.0208 6.69583 10.55 6.5 10 6.5C9.45 6.5 8.97917 6.69583 8.5875 7.0875C8.19583 7.47917 8 7.95 8 8.5C8 9.05 8.19583 9.52083 8.5875 9.9125C8.97917 10.3042 9.45 10.5 10 10.5ZM14.65 14.35L17 15.725L19.35 14.35L17 13L14.65 14.35ZM17.75 19.55L20 18.25V15.5L17.75 16.825V19.55ZM14 18.25L16.25 19.575V16.85L14 15.525V18.25Z" fill="#EFF5FF"/>
</g>
</svg>
