<svg width="16" height="17" viewBox="0 0 16 17" fill="none" xmlns="http://www.w3.org/2000/svg">
<mask id="mask0_576_1274" style="mask-type:alpha" maskUnits="userSpaceOnUse" x="0" y="0" width="16" height="17">
<rect y="0.5" width="16" height="16" fill="#D9D9D9"/>
</mask>
<g mask="url(#mask0_576_1274)">
<path d="M4.00002 15.1667C3.63335 15.1667 3.31946 15.0361 3.05835 14.775C2.79724 14.5139 2.66669 14.2 2.66669 13.8333V3.16667C2.66669 2.8 2.79724 2.48611 3.05835 2.225C3.31946 1.96389 3.63335 1.83334 4.00002 1.83334H9.33335L13.3334 5.83334V13.8333C13.3334 14.2 13.2028 14.5139 12.9417 14.775C12.6806 15.0361 12.3667 15.1667 12 15.1667H4.00002ZM8.66669 6.5V3.16667H4.00002V13.8333H12V6.5H8.66669Z" fill="#EFF5FF"/>
</g>
</svg>
