<svg width="48" height="48" viewBox="0 0 48 48" fill="none" xmlns="http://www.w3.org/2000/svg">
<mask id="mask0_8_112" style="mask-type:alpha" maskUnits="userSpaceOnUse" x="0" y="0" width="48" height="48">
<rect width="48" height="48" fill="#D9D9D9"/>
</mask>
<g mask="url(#mask0_8_112)">
<path d="M30 46C28.9 46 27.9583 45.6083 27.175 44.825C26.3917 44.0417 26 43.1 26 42C26 41.2333 26.1833 40.55 26.55 39.95C26.9167 39.35 27.4 38.8667 28 38.5V27.45C27.4 27.0833 26.9167 26.6083 26.55 26.025C26.1833 25.4417 26 24.7667 26 24C26 22.9 26.3917 21.9583 27.175 21.175C27.9583 20.3917 28.9 20 30 20C31.1 20 32.0417 20.3917 32.825 21.175C33.6083 21.9583 34 22.9 34 24C34 24.7667 33.8167 25.4417 33.45 26.025C33.0833 26.6083 32.6 27.0833 32 27.45V33.2L40 30.55V27.45C39.4 27.0833 38.9167 26.6083 38.55 26.025C38.1833 25.4417 38 24.7667 38 24C38 22.9 38.3917 21.9583 39.175 21.175C39.9583 20.3917 40.9 20 42 20C43.1 20 44.0417 20.3917 44.825 21.175C45.6083 21.9583 46 22.9 46 24C46 24.7667 45.8167 25.4417 45.45 26.025C45.0833 26.6083 44.6 27.0833 44 27.45V33.4L32 37.4V38.5C32.6 38.8667 33.0833 39.35 33.45 39.95C33.8167 40.55 34 41.2333 34 42C34 43.1 33.6083 44.0417 32.825 44.825C32.0417 45.6083 31.1 46 30 46ZM8 40C6.9 40 5.95833 39.6083 5.175 38.825C4.39167 38.0417 4 37.1 4 36V12C4 10.9 4.39167 9.95833 5.175 9.175C5.95833 8.39167 6.9 8 8 8H20L24 12H40C41.1 12 42.0417 12.3917 42.825 13.175C43.6083 13.9583 44 14.9 44 16H22.35L18.35 12H8V36H22V40H8Z" fill="#71DA4C"/>
</g>
</svg>
