<svg width="21" height="20" viewBox="0 0 21 20" fill="none" xmlns="http://www.w3.org/2000/svg">
<path d="M10.2529 0C15.9177 0 20.5059 4.58819 20.5059 10.2529C20.5053 12.4012 19.8311 14.4952 18.5781 16.2402C17.3251 17.9852 15.5565 19.2933 13.5211 19.9804C13.0084 20.0829 12.8162 19.7625 12.8162 19.4934C12.8162 19.1474 12.829 18.0452 12.829 16.6738C12.829 15.7126 12.5086 15.0975 12.1369 14.777C14.4182 14.5207 16.8148 13.6492 16.8148 9.71466C16.8148 8.58684 16.4175 7.67689 15.7639 6.95918C15.8664 6.70286 16.2253 5.65193 15.6614 4.24215C15.6614 4.24215 14.8027 3.9602 12.8418 5.29308C12.0216 5.06239 11.1501 4.94704 10.2786 4.94704C9.40707 4.94704 8.53557 5.06239 7.71534 5.29308C5.75446 3.97301 4.89578 4.24215 4.89578 4.24215C4.33187 5.65193 4.69072 6.70286 4.79325 6.95918C4.13963 7.67689 3.74232 8.59965 3.74232 9.71466C3.74232 13.6364 6.12613 14.5207 8.40741 14.777C8.11264 15.0334 7.8435 15.4819 7.75379 16.1484C7.16424 16.4175 5.69038 16.8533 4.76762 15.3025C4.57538 14.9949 3.99865 14.2388 3.19123 14.2516C2.33255 14.2644 2.84519 14.7386 3.20404 14.9308C3.63979 15.1743 4.13963 16.0843 4.25497 16.3791C4.46003 16.9558 5.12647 18.058 7.70252 17.5838C7.70252 18.4425 7.71534 19.2499 7.71534 19.4934C7.71534 19.7625 7.52309 20.0701 7.01045 19.9804C4.96837 19.3007 3.19217 17.9952 1.93382 16.2492C0.675472 14.5031 -0.00112844 12.4052 1.41274e-06 10.2529C1.41274e-06 4.58819 4.58819 0 10.2529 0Z" fill="#EFF5FF"/>
</svg>
