<svg width="15" height="10" viewBox="0 0 15 10" fill="none" xmlns="http://www.w3.org/2000/svg">
<path d="M14.4273 8.93319V8.23317C14.4273 8.103 14.2083 7.97862 13.8152 7.86696L13.8247 6.99512C13.8247 5.65264 13.4082 4.34256 12.6312 3.24191C11.8515 2.13936 10.7525 1.30241 9.4823 0.843913L9.45424 0.669197C9.43968 0.575607 9.39874 0.488108 9.33622 0.416959C9.27339 0.345535 9.19167 0.293297 9.10047 0.266252C7.8795 -0.0887507 6.58269 -0.0887507 5.36173 0.266252C5.27003 0.293154 5.18817 0.345221 5.12511 0.41667C5.06234 0.487829 5.02097 0.575186 5.00651 0.668908L4.97961 0.831764C3.70165 1.28596 2.59452 2.12261 1.80869 3.22803C1.02669 4.32846 0.606262 5.64484 0.605644 6.99483V7.87043C0.218029 7.9818 0.0019491 8.10473 0.0019491 8.23375V8.93406C-0.0043143 8.97515 0.00463417 9.01711 0.0271151 9.05208C0.220464 8.90916 0.44204 8.80907 0.677092 8.75847C1.27645 8.61384 1.88593 8.5126 2.50032 8.4559C2.67231 8.43666 2.84642 8.45396 3.01127 8.50664C3.17611 8.55933 3.32798 8.64623 3.45692 8.76165C3.93325 9.19258 4.55278 9.43105 5.19511 9.43072H9.2344C9.87671 9.4311 10.4962 9.1925 10.9723 8.76136C11.101 8.64533 11.2528 8.55781 11.4177 8.50452C11.5826 8.45123 11.7569 8.43338 11.9292 8.45214C12.5433 8.50855 13.1528 8.60921 13.7521 8.75356C13.9749 8.79579 14.1854 8.88719 14.3683 9.02083C14.3784 9.03096 14.3908 9.03993 14.3995 9.04976C14.4223 9.01543 14.4321 8.97411 14.4273 8.93319Z" fill="#FFF100"/>
<path d="M3.46629 7.4594C3.46086 7.29814 3.45796 7.13681 3.45761 6.97546C3.45964 4.54101 4.03383 2.35764 4.97972 0.832932C3.70184 1.28697 2.59472 2.12342 1.80881 3.22862C1.02682 4.32885 0.606292 5.64502 0.605469 6.99484V7.87044C1.54491 7.64843 2.50234 7.51097 3.46629 7.45969V7.4594Z" fill="url(#paint0_linear_241_5918)"/>
<path d="M13.8239 6.99483C13.8252 5.47275 13.2913 3.99869 12.3154 2.83058C12.7389 4.17072 12.9499 5.56888 12.9408 6.97429C12.9408 7.21149 12.9345 7.44579 12.9235 7.67865C13.2231 7.72473 13.5199 7.78731 13.8127 7.86609L13.8239 6.99483Z" fill="url(#paint1_linear_241_5918)"/>
<path d="M13.7523 8.75588C13.1526 8.61124 12.5432 8.51 11.9291 8.45331C11.7569 8.4343 11.5827 8.45186 11.4178 8.50485C11.2529 8.55784 11.101 8.64506 10.9722 8.76079C10.4959 9.19189 9.87635 9.43039 9.23397 9.42986H5.19642C4.55442 9.43009 3.93524 9.19173 3.4591 8.76108C3.33046 8.6449 3.1787 8.55724 3.01379 8.50385C2.84888 8.45046 2.67454 8.43254 2.50222 8.45128C1.88782 8.50798 1.27863 8.60893 0.678984 8.75356C0.444246 8.80484 0.222902 8.90487 0.0292969 9.04717C0.335917 9.51201 3.43741 10 7.21636 10C10.9956 10 14.0956 9.51028 14.4028 9.04746C14.3921 9.03791 14.3803 9.02894 14.3713 9.01882C14.1862 8.88776 13.9751 8.79808 13.7523 8.75588Z" fill="url(#paint2_radial_241_5918)"/>
<path d="M7.21438 2.05594L5.66797 4.66597L7.21438 5.61707V2.05594Z" fill="#0A0A0A"/>
<path d="M7.21484 2.05708V5.61648L8.76096 4.66654L7.21484 2.05708ZM7.21484 6.13368V7.37463C7.24377 7.33355 8.76096 5.182 8.76096 5.18114L7.21484 6.13368Z" fill="#4B4D4D"/>
<path d="M7.21486 6.13398L5.66846 5.18288L7.21486 7.3755V6.1334V6.13398Z" fill="#0A0A0A"/>
<defs>
<linearGradient id="paint0_linear_241_5918" x1="2.7926" y1="7.87044" x2="2.7926" y2="0.832932" gradientUnits="userSpaceOnUse">
<stop stop-color="#EDCF00"/>
<stop offset="0.33" stop-color="#F0D500"/>
<stop offset="0.77" stop-color="#F9E500"/>
<stop offset="1" stop-color="#FFF100"/>
</linearGradient>
<linearGradient id="paint1_linear_241_5918" x1="13.0695" y1="7.92163" x2="13.0695" y2="2.83058" gradientUnits="userSpaceOnUse">
<stop stop-color="#EDCF00"/>
<stop offset="0.59" stop-color="#F7E100"/>
<stop offset="1" stop-color="#FFF100"/>
</linearGradient>
<radialGradient id="paint2_radial_241_5918" cx="0" cy="0" r="1" gradientUnits="userSpaceOnUse" gradientTransform="translate(0.808575 12.678) scale(5.3629 5.32639)">
<stop stop-color="#FFF100"/>
<stop offset="0.23" stop-color="#F9E500"/>
<stop offset="0.67" stop-color="#F0D500"/>
<stop offset="1" stop-color="#EDCF00"/>
</radialGradient>
</defs>
</svg>
