<svg width="16" height="16" viewBox="0 0 16 16" fill="none" xmlns="http://www.w3.org/2000/svg">
<mask id="mask0_311_616" style="mask-type:alpha" maskUnits="userSpaceOnUse" x="0" y="0" width="16" height="16">
<rect width="16" height="16" fill="#D9D9D9"/>
</mask>
<g mask="url(#mask0_311_616)">
<path d="M3.33333 14.6666C2.96667 14.6666 2.65278 14.5361 2.39167 14.275C2.13056 14.0139 2 13.7 2 13.3333V10.3L3.83333 8.21665L4.78333 9.16665L3.45 10.6666H12.55L11.25 9.19998L12.2 8.24998L14 10.3V13.3333C14 13.7 13.8694 14.0139 13.6083 14.275C13.3472 14.5361 13.0333 14.6666 12.6667 14.6666H3.33333ZM3.33333 13.3333H12.6667V12H3.33333V13.3333ZM7.08333 9.58331L4.73333 7.23331C4.47778 6.97776 4.35278 6.66387 4.35833 6.29165C4.36389 5.91942 4.49444 5.60553 4.75 5.34998L8.01667 2.08331C8.27222 1.82776 8.58889 1.69442 8.96667 1.68331C9.34444 1.6722 9.66111 1.79442 9.91667 2.04998L12.2667 4.39998C12.5222 4.65553 12.6556 4.96665 12.6667 5.33331C12.6778 5.69998 12.5556 6.01109 12.3 6.26664L8.96667 9.59998C8.71111 9.85553 8.39722 9.98053 8.025 9.97498C7.65278 9.96942 7.33889 9.83887 7.08333 9.58331ZM11.3333 5.34998L8.98333 2.99998L5.68333 6.29998L8.03333 8.64998L11.3333 5.34998Z" fill="#EFF5FF"/>
</g>
</svg>
