<svg width="24" height="25" viewBox="0 0 24 25" fill="none" xmlns="http://www.w3.org/2000/svg">
<mask id="mask0_510_2938" style="mask-type:alpha" maskUnits="userSpaceOnUse" x="0" y="0" width="24" height="25">
<rect y="0.5" width="24" height="24" fill="#D9D9D9"/>
</mask>
<g mask="url(#mask0_510_2938)">
<path d="M21 12.5L16.65 18.65C16.4667 18.9167 16.2292 19.125 15.9375 19.275C15.6458 19.425 15.3333 19.5 15 19.5H5C4.45 19.5 3.97917 19.3042 3.5875 18.9125C3.19583 18.5208 3 18.05 3 17.5V7.5C3 6.95 3.19583 6.47917 3.5875 6.0875C3.97917 5.69583 4.45 5.5 5 5.5H15C15.3333 5.5 15.6458 5.575 15.9375 5.725C16.2292 5.875 16.4667 6.08333 16.65 6.35L21 12.5ZM18.55 12.5L15 7.5H5V17.5H15L18.55 12.5Z" fill="#71DA4C"/>
</g>
</svg>
