<svg width="48" height="48" viewBox="0 0 48 48" fill="none" xmlns="http://www.w3.org/2000/svg">
<mask id="mask0_118_993" style="mask-type:alpha" maskUnits="userSpaceOnUse" x="0" y="0" width="48" height="48">
<rect width="48" height="48" fill="#D9D9D9"/>
</mask>
<g mask="url(#mask0_118_993)">
<path d="M31.5 40H8C6.9 40 5.95833 39.6083 5.175 38.825C4.39167 38.0417 4 37.1 4 36V12C4 10.9 4.39167 9.95833 5.175 9.175C5.95833 8.39167 6.9 8 8 8H40C41.1 8 42.0417 8.39167 42.825 9.175C43.6083 9.95833 44 10.9 44 12V36C44 37.1 43.6083 38.0417 42.825 38.825C42.0417 39.6083 41.1 40 40 40H37.2L27.8 30.6C27.1 31.0667 26.3417 31.4167 25.525 31.65C24.7083 31.8833 23.8667 32 23 32C20.5 32 18.375 31.125 16.625 29.375C14.875 27.625 14 25.5 14 23C14 20.5 14.875 18.375 16.625 16.625C18.375 14.875 20.5 14 23 14C25.5 14 27.625 14.875 29.375 16.625C31.125 18.375 32 20.5 32 23C32 23.9 31.8833 24.75 31.65 25.55C31.4167 26.35 31.0667 27.1 30.6 27.8L38.8 36H40V12H8V36H27.5L31.5 40ZM23 28C24.4 28 25.5833 27.5167 26.55 26.55C27.5167 25.5833 28 24.4 28 23C28 21.6 27.5167 20.4167 26.55 19.45C25.5833 18.4833 24.4 18 23 18C21.6 18 20.4167 18.4833 19.45 19.45C18.4833 20.4167 18 21.6 18 23C18 24.4 18.4833 25.5833 19.45 26.55C20.4167 27.5167 21.6 28 23 28Z" fill="#71DA4C"/>
</g>
</svg>
