<svg width="16" height="16" viewBox="0 0 16 16" fill="none" xmlns="http://www.w3.org/2000/svg">
<mask id="mask0_311_1074" style="mask-type:alpha" maskUnits="userSpaceOnUse" x="0" y="0" width="16" height="16">
<rect width="16" height="16" fill="#D9D9D9"/>
</mask>
<g mask="url(#mask0_311_1074)">
<path d="M5.00008 7.33334C4.35564 7.33334 3.80564 7.10556 3.35008 6.65001C2.89453 6.19445 2.66675 5.64445 2.66675 5.00001C2.66675 4.35556 2.89453 3.80556 3.35008 3.35001C3.80564 2.89445 4.35564 2.66667 5.00008 2.66667C5.64453 2.66667 6.19453 2.89445 6.65008 3.35001C7.10564 3.80556 7.33342 4.35556 7.33342 5.00001C7.33342 5.64445 7.10564 6.19445 6.65008 6.65001C6.19453 7.10556 5.64453 7.33334 5.00008 7.33334ZM5.00008 6.00001C5.27786 6.00001 5.51397 5.90278 5.70841 5.70834C5.90286 5.51389 6.00008 5.27778 6.00008 5.00001C6.00008 4.72223 5.90286 4.48612 5.70841 4.29167C5.51397 4.09723 5.27786 4.00001 5.00008 4.00001C4.7223 4.00001 4.48619 4.09723 4.29175 4.29167C4.0973 4.48612 4.00008 4.72223 4.00008 5.00001C4.00008 5.27778 4.0973 5.51389 4.29175 5.70834C4.48619 5.90278 4.7223 6.00001 5.00008 6.00001ZM11.0001 13.3333C10.3556 13.3333 9.80564 13.1056 9.35008 12.65C8.89453 12.1945 8.66675 11.6445 8.66675 11C8.66675 10.3556 8.89453 9.80556 9.35008 9.35001C9.80564 8.89445 10.3556 8.66667 11.0001 8.66667C11.6445 8.66667 12.1945 8.89445 12.6501 9.35001C13.1056 9.80556 13.3334 10.3556 13.3334 11C13.3334 11.6445 13.1056 12.1945 12.6501 12.65C12.1945 13.1056 11.6445 13.3333 11.0001 13.3333ZM11.0001 12C11.2779 12 11.514 11.9028 11.7084 11.7083C11.9029 11.5139 12.0001 11.2778 12.0001 11C12.0001 10.7222 11.9029 10.4861 11.7084 10.2917C11.514 10.0972 11.2779 10 11.0001 10C10.7223 10 10.4862 10.0972 10.2917 10.2917C10.0973 10.4861 10.0001 10.7222 10.0001 11C10.0001 11.2778 10.0973 11.5139 10.2917 11.7083C10.4862 11.9028 10.7223 12 11.0001 12ZM3.60008 13.3333L2.66675 12.4L12.4001 2.66667L13.3334 3.60001L3.60008 13.3333Z" fill="#EFF5FF"/>
</g>
</svg>
