<svg width="24" height="25" viewBox="0 0 24 25" fill="none" xmlns="http://www.w3.org/2000/svg">
<mask id="mask0_8_293" style="mask-type:alpha" maskUnits="userSpaceOnUse" x="0" y="0" width="24" height="25">
<rect y="0.5" width="24" height="24" fill="#D9D9D9"/>
</mask>
<g mask="url(#mask0_8_293)">
<path d="M9 21.5C7.33333 21.5 5.91667 20.9167 4.75 19.75C3.58333 18.5833 3 17.1667 3 15.5V9.5C3 7.83333 3.58333 6.41667 4.75 5.25C5.91667 4.08333 7.33333 3.5 9 3.5H15C16.6667 3.5 18.0833 4.08333 19.25 5.25C20.4167 6.41667 21 7.83333 21 9.5V15.5C21 17.1667 20.4167 18.5833 19.25 19.75C18.0833 20.9167 16.6667 21.5 15 21.5H9ZM11 16.5L17 10.5L15.6 9.1L11 13.7L8.8 11.5L7.4 12.9L11 16.5Z" fill="#71DA4C"/>
</g>
</svg>
