<svg width="16" height="16" viewBox="0 0 16 16" fill="none" xmlns="http://www.w3.org/2000/svg">
<mask id="mask0_311_359" style="mask-type:alpha" maskUnits="userSpaceOnUse" x="0" y="0" width="16" height="16">
<rect width="16" height="16" fill="#D9D9D9"/>
</mask>
<g mask="url(#mask0_311_359)">
<path d="M7.33342 12.6667H8.66675V12H9.33342C9.5223 12 9.68064 11.9361 9.80842 11.8083C9.93619 11.6806 10.0001 11.5222 10.0001 11.3333V9.33333C10.0001 9.14444 9.93619 8.98611 9.80842 8.85833C9.68064 8.73055 9.5223 8.66667 9.33342 8.66667H7.33342V8H10.0001V6.66667H8.66675V6H7.33342V6.66667H6.66675C6.47786 6.66667 6.31953 6.73055 6.19175 6.85833C6.06397 6.98611 6.00008 7.14444 6.00008 7.33333V9.33333C6.00008 9.52222 6.06397 9.68055 6.19175 9.80833C6.31953 9.93611 6.47786 10 6.66675 10H8.66675V10.6667H6.00008V12H7.33342V12.6667ZM4.00008 14.6667C3.63341 14.6667 3.31953 14.5361 3.05841 14.275C2.7973 14.0139 2.66675 13.7 2.66675 13.3333V2.66667C2.66675 2.3 2.7973 1.98611 3.05841 1.725C3.31953 1.46389 3.63341 1.33333 4.00008 1.33333H9.33342L13.3334 5.33333V13.3333C13.3334 13.7 13.2029 14.0139 12.9417 14.275C12.6806 14.5361 12.3667 14.6667 12.0001 14.6667H4.00008ZM8.66675 5.33333V2.66667H4.00008V13.3333H12.0001V5.33333H8.66675Z" fill="#EFF5FF"/>
</g>
</svg>
