<svg width="13" height="12" viewBox="0 0 13 12" fill="none" xmlns="http://www.w3.org/2000/svg">
<g clip-path="url(#clip0_241_5928)">
<path d="M10.189 0.11731H2.82668C1.54924 0.11731 0.513672 1.15288 0.513672 2.43032V9.67783C0.513672 10.9553 1.54924 11.9908 2.82668 11.9908H10.189C11.4665 11.9908 12.502 10.9553 12.502 9.67783V2.43032C12.502 1.15288 11.4665 0.11731 10.189 0.11731Z" fill="black"/>
<path d="M8.59504 5.00054L8.77114 4.68376L8.96314 5.00054L10.1961 6.9636L8.77602 7.75718L7.38379 6.9636L8.59504 5.00054Z" fill="white"/>
<path d="M8.77619 8.14701L7.56494 7.49266L8.77619 9.30258L9.9798 7.47041L8.77619 8.14701Z" fill="white"/>
<path d="M8.77637 7.75598V4.92391V4.68822L10.2011 6.96217L8.77637 7.75598Z" fill="#DFDFDF"/>
<path d="M8.77734 9.29998L8.78666 8.15257L9.98258 7.46622L8.77734 9.29998Z" fill="#DFDFDF"/>
<path d="M4.47674 2.55213V2.89559H4.47724L4.47714 3.26435H3.58266V3.26548H3.43313L2.94438 4.29311H4.47727V4.70262H4.47675L4.47727 8.17116C4.47727 8.65021 4.08893 9.03855 3.60989 9.03855H3.33858L2.75879 9.89143H7.77182L7.17614 9.03855H6.52033C6.04128 9.03855 5.65294 8.65021 5.65294 8.17116L5.65244 5.13706C5.66475 4.67148 6.04397 4.29733 6.51152 4.29311H9.78722L9.21197 3.26548H6.73475V3.26435L5.652 3.26434L5.65208 2.89559H5.65241V2.15582L4.47674 2.55213Z" fill="white"/>
<path d="M5.12061 2.33549V9.00583C5.13132 8.81932 5.25772 8.33593 5.64799 8.12973V5.98429L5.66041 5.98821V5.15658C5.66041 4.67754 6.04875 4.2892 6.52778 4.2892H9.7911L9.48164 3.74889H6.30017C5.8555 3.74889 5.64799 4.06541 5.64799 4.06541L5.65725 2.15372L5.12061 2.33549Z" fill="#DFDFDF"/>
<path d="M3.20769 3.74031L2.93799 4.29509H4.4786V3.74031H3.20769Z" fill="#DFDFDF"/>
</g>
<defs>
<clipPath id="clip0_241_5928">
<rect width="12.1176" height="12" fill="white" transform="translate(0.428711)"/>
</clipPath>
</defs>
</svg>
