<svg width="55" height="54" viewBox="0 0 55 54" fill="none" xmlns="http://www.w3.org/2000/svg">
<mask id="mask0_471_1073" style="mask-type:alpha" maskUnits="userSpaceOnUse" x="0" y="0" width="55" height="54">
<rect x="0.666992" width="54" height="54" fill="#D9D9D9"/>
</mask>
<g mask="url(#mask0_471_1073)">
<path d="M36.1045 45H9.66699C8.42949 45 7.37012 44.5594 6.48887 43.6781C5.60762 42.7969 5.16699 41.7375 5.16699 40.5V13.5C5.16699 12.2625 5.60762 11.2031 6.48887 10.3219C7.37012 9.44063 8.42949 9 9.66699 9H45.667C46.9045 9 47.9639 9.44063 48.8451 10.3219C49.7264 11.2031 50.167 12.2625 50.167 13.5V40.5C50.167 41.7375 49.7264 42.7969 48.8451 43.6781C47.9639 44.5594 46.9045 45 45.667 45H42.517L31.942 34.425C31.1545 34.95 30.3014 35.3438 29.3826 35.6062C28.4639 35.8687 27.517 36 26.542 36C23.7295 36 21.3389 35.0156 19.3701 33.0469C17.4014 31.0781 16.417 28.6875 16.417 25.875C16.417 23.0625 17.4014 20.6719 19.3701 18.7031C21.3389 16.7344 23.7295 15.75 26.542 15.75C29.3545 15.75 31.7451 16.7344 33.7139 18.7031C35.6826 20.6719 36.667 23.0625 36.667 25.875C36.667 26.8875 36.5357 27.8438 36.2732 28.7438C36.0107 29.6438 35.617 30.4875 35.092 31.275L44.317 40.5H45.667V13.5H9.66699V40.5H31.6045L36.1045 45ZM26.542 31.5C28.117 31.5 29.4482 30.9563 30.5357 29.8688C31.6232 28.7813 32.167 27.45 32.167 25.875C32.167 24.3 31.6232 22.9688 30.5357 21.8812C29.4482 20.7937 28.117 20.25 26.542 20.25C24.967 20.25 23.6357 20.7937 22.5482 21.8812C21.4607 22.9688 20.917 24.3 20.917 25.875C20.917 27.45 21.4607 28.7813 22.5482 29.8688C23.6357 30.9563 24.967 31.5 26.542 31.5Z" fill="#71DA4C"/>
</g>
</svg>
