<svg width="16" height="16" viewBox="0 0 16 16" fill="none" xmlns="http://www.w3.org/2000/svg">
<mask id="mask0_311_866" style="mask-type:alpha" maskUnits="userSpaceOnUse" x="0" y="0" width="16" height="16">
<rect width="16" height="16" fill="#D9D9D9"/>
</mask>
<g mask="url(#mask0_311_866)">
<path d="M4 13.1667C2.84444 12.8667 1.88889 12.2444 1.13333 11.3C0.377778 10.3556 0 9.25556 0 8.00001C0 6.74445 0.377778 5.64445 1.13333 4.70001C1.88889 3.75556 2.84444 3.13334 4 2.83334V4.23334C3.21111 4.50001 2.56944 4.97778 2.075 5.66667C1.58056 6.35556 1.33333 7.13334 1.33333 8.00001C1.33333 8.86667 1.58056 9.64445 2.075 10.3333C2.56944 11.0222 3.21111 11.5 4 11.7667V13.1667ZM9.33333 13.3333C7.85556 13.3333 6.59722 12.8139 5.55833 11.775C4.51944 10.7361 4 9.47778 4 8.00001C4 6.52223 4.51944 5.26389 5.55833 4.22501C6.59722 3.18612 7.85556 2.66667 9.33333 2.66667C10.0667 2.66667 10.7556 2.80556 11.4 3.08334C12.0444 3.36112 12.6111 3.74445 13.1 4.23334L12.1667 5.16667C11.8 4.80001 11.375 4.51389 10.8917 4.30834C10.4083 4.10278 9.88889 4.00001 9.33333 4.00001C8.22222 4.00001 7.27778 4.38889 6.5 5.16667C5.72222 5.94445 5.33333 6.88889 5.33333 8.00001C5.33333 9.11112 5.72222 10.0556 6.5 10.8333C7.27778 11.6111 8.22222 12 9.33333 12C9.88889 12 10.4083 11.8972 10.8917 11.6917C11.375 11.4861 11.8 11.2 12.1667 10.8333L13.1 11.7667C12.6111 12.2556 12.0444 12.6389 11.4 12.9167C10.7556 13.1944 10.0667 13.3333 9.33333 13.3333ZM13.3333 10.6667L12.4 9.73334L13.4667 8.66667H8.66667V7.33334H13.4667L12.4 6.26667L13.3333 5.33334L16 8.00001L13.3333 10.6667Z" fill="#EFF5FF"/>
</g>
</svg>
