<svg width="20" height="20" viewBox="0 0 20 20" fill="none" xmlns="http://www.w3.org/2000/svg">
<mask id="mask0_273_835" style="mask-type:alpha" maskUnits="userSpaceOnUse" x="0" y="0" width="20" height="20">
<rect width="20" height="20" fill="#D9D9D9"/>
</mask>
<g mask="url(#mask0_273_835)">
<path d="M3.33341 16.6667C2.87508 16.6667 2.48272 16.5035 2.15633 16.1771C1.82994 15.8507 1.66675 15.4583 1.66675 15V5C1.66675 4.54167 1.82994 4.14931 2.15633 3.82292C2.48272 3.49653 2.87508 3.33333 3.33341 3.33333H16.6667C17.1251 3.33333 17.5174 3.49653 17.8438 3.82292C18.1702 4.14931 18.3334 4.54167 18.3334 5V15C18.3334 15.4583 18.1702 15.8507 17.8438 16.1771C17.5174 16.5035 17.1251 16.6667 16.6667 16.6667H3.33341ZM3.33341 15H16.6667V6.66667H3.33341V15ZM6.25008 14.1667L5.08341 13L7.22925 10.8333L5.06258 8.66667L6.25008 7.5L9.58341 10.8333L6.25008 14.1667ZM10.0001 14.1667V12.5H15.0001V14.1667H10.0001Z" fill="#EFF5FF"/>
</g>
</svg>
