<svg width="16" height="16" viewBox="0 0 16 16" fill="none" xmlns="http://www.w3.org/2000/svg">
<mask id="mask0_311_1111" style="mask-type:alpha" maskUnits="userSpaceOnUse" x="0" y="0" width="16" height="16">
<rect width="16" height="16" fill="#D9D9D9"/>
</mask>
<g mask="url(#mask0_311_1111)">
<path d="M2.66659 12C2.29992 12 1.98603 11.8694 1.72492 11.6083C1.46381 11.3472 1.33325 11.0333 1.33325 10.6667V5.33333C1.33325 4.96667 1.46381 4.65278 1.72492 4.39167C1.98603 4.13056 2.29992 4 2.66659 4H13.3333C13.6999 4 14.0138 4.13056 14.2749 4.39167C14.536 4.65278 14.6666 4.96667 14.6666 5.33333V10.6667C14.6666 11.0333 14.536 11.3472 14.2749 11.6083C14.0138 11.8694 13.6999 12 13.3333 12H2.66659ZM2.66659 10.6667H13.3333V5.33333H2.66659V10.6667ZM4.66658 10H5.99992V8.66667H7.33325V7.33333H5.99992V6H4.66658V7.33333H3.33325V8.66667H4.66658V10ZM9.66658 10C9.94436 10 10.1805 9.90278 10.3749 9.70833C10.5694 9.51389 10.6666 9.27778 10.6666 9C10.6666 8.72222 10.5694 8.48611 10.3749 8.29167C10.1805 8.09722 9.94436 8 9.66658 8C9.38881 8 9.1527 8.09722 8.95825 8.29167C8.76381 8.48611 8.66658 8.72222 8.66658 9C8.66658 9.27778 8.76381 9.51389 8.95825 9.70833C9.1527 9.90278 9.38881 10 9.66658 10ZM11.6666 8C11.9444 8 12.1805 7.90278 12.3749 7.70833C12.5694 7.51389 12.6666 7.27778 12.6666 7C12.6666 6.72222 12.5694 6.48611 12.3749 6.29167C12.1805 6.09722 11.9444 6 11.6666 6C11.3888 6 11.1527 6.09722 10.9583 6.29167C10.7638 6.48611 10.6666 6.72222 10.6666 7C10.6666 7.27778 10.7638 7.51389 10.9583 7.70833C11.1527 7.90278 11.3888 8 11.6666 8Z" fill="#EFF5FF"/>
</g>
</svg>
