<svg width="16" height="16" viewBox="0 0 16 16" fill="none" xmlns="http://www.w3.org/2000/svg">
<mask id="mask0_311_924" style="mask-type:alpha" maskUnits="userSpaceOnUse" x="0" y="0" width="16" height="16">
<rect width="16" height="16" fill="#D9D9D9"/>
</mask>
<g mask="url(#mask0_311_924)">
<path d="M8.18342 12.6667C8.31675 12.6556 8.43064 12.6028 8.52508 12.5083C8.61953 12.4139 8.66675 12.3 8.66675 12.1667C8.66675 12.0111 8.61675 11.8861 8.51675 11.7917C8.41675 11.6972 8.28897 11.6556 8.13341 11.6667C7.67786 11.7 7.19453 11.575 6.68341 11.2917C6.1723 11.0083 5.85008 10.4944 5.71675 9.74999C5.69453 9.62777 5.63619 9.52777 5.54175 9.44999C5.4473 9.37222 5.33897 9.33333 5.21675 9.33333C5.06119 9.33333 4.93341 9.39166 4.83341 9.50833C4.73341 9.62499 4.70008 9.76111 4.73341 9.91666C4.9223 10.9278 5.36675 11.65 6.06675 12.0833C6.76675 12.5167 7.4723 12.7111 8.18342 12.6667ZM8.00008 14.6667C6.47786 14.6667 5.20841 14.1444 4.19175 13.1C3.17508 12.0555 2.66675 10.7556 2.66675 9.19999C2.66675 8.08888 3.10841 6.88055 3.99175 5.57499C4.87508 4.26944 6.21119 2.85555 8.00008 1.33333C9.78897 2.85555 11.1251 4.26944 12.0084 5.57499C12.8917 6.88055 13.3334 8.08888 13.3334 9.19999C13.3334 10.7556 12.8251 12.0555 11.8084 13.1C10.7917 14.1444 9.5223 14.6667 8.00008 14.6667ZM8.00008 13.3333C9.15564 13.3333 10.1112 12.9417 10.8667 12.1583C11.6223 11.375 12.0001 10.3889 12.0001 9.19999C12.0001 8.38888 11.664 7.47222 10.9917 6.44999C10.3195 5.42777 9.3223 4.31111 8.00008 3.09999C6.67786 4.31111 5.68064 5.42777 5.00841 6.44999C4.33619 7.47222 4.00008 8.38888 4.00008 9.19999C4.00008 10.3889 4.37786 11.375 5.13341 12.1583C5.88897 12.9417 6.84453 13.3333 8.00008 13.3333Z" fill="#EFF5FF"/>
</g>
</svg>
